# xmcd
#
# Track frame offsets: 
#        150
#        18097
#        36006
#        51736
#        67462
#        88119
#        108059
#        125124
#        142153
#        161566
#        180913
#        198459
#        213994
#        229654
#
# Disc length: 3298 seconds
#
# Revision: 0
# Processed by: cddbd v1.5.2PL0 Copyright (c) Steve Scherf et al.
# Submitted via: ExactAudioCopy v1.0b1
#
DISCID=cc0ce00e
DTITLE=Keyshia Cole - Calling All Hearts (Deluxe Edition)
DYEAR=2010
DGENRE=R&B
TTITLE0=I Ain't Thru (feat. Nicki Minaj)
TTITLE1=Long Way Down
TTITLE2=Tired Of Doing Me (feat. Tank)
TTITLE3=If I Fall In Love Again (feat. Faith Evans)
TTITLE4=So Impossible
TTITLE5=Confused In Love
TTITLE6=Sometimes
TTITLE7=Take Me Away
TTITLE8=What You Do To Me
TTITLE9=Last Hangover (feat. Timbaland)
TTITLE10=Two Sides To Every Story
TTITLE11=Where Would We
TTITLE12=Thank You (feat. Dr. Yvonne Cole)
TTITLE13=Better Me
EXTD=
EXTT0=
EXTT1=
EXTT2=
EXTT3=
EXTT4=
EXTT5=
EXTT6=
EXTT7=
EXTT8=
EXTT9=
EXTT10=
EXTT11=
EXTT12=
EXTT13=
PLAYORDER=
